<svg xmlns="http://www.w3.org/2000/svg" width="101" height="38" viewBox="0 0 101 38">
    <g fill="none" fill-rule="evenodd">
        <g fill="#FFF">
            <g>
                <g>
                    <path d="M0 7L0 12.848 3.667 12.683 3.667 25 10.328 25 10.328 12.683 14 12.848 14 7z" transform="translate(-130.000000, -10945.000000) translate(0.000000, 10010.000000) translate(130.000000, 935.000000)"/>
                    <g>
                        <path d="M25.173 7.53v10.087c0 1.416-.051 2.664-1.81 2.664-1.761 0-1.807-1.248-1.807-2.664V7.53h-6.608v10.71c0 5.283 3.327 7.686 8.415 7.686 5.088 0 8.415-2.403 8.415-7.686V7.53h-6.605zM49.455 24.268c2.049 1.033 4.7 1.656 6.993 1.656 3.93 0 7.884-2.134 7.884-6.458 0-3.076-2.026-4.564-4.821-5.187l-1.497-.338c-.506-.12-1.327-.215-1.327-.887 0-.744.844-.961 1.425-.961 1.422 0 2.7.6 3.832 1.367l1.787-4.635c-1.787-1.079-3.692-1.583-5.766-1.583-3.953 0-7.883 2.401-7.883 6.7 0 2.834 2.169 4.346 4.751 4.803l1.325.24c.603.12 1.471.192 1.471 1.008 0 .815-1.037 1.081-1.69 1.081-1.516 0-2.939-.744-4.122-1.656l-.336-.264-2.026 5.114zM2.468 36.427H1.27l.609-1.411.588 1.411zm.156.366l.419.997h.433L1.885 34.1.257 37.79H.69l.426-.997h1.51zM5.804 34.754c-.187-.345-.518-.547-.911-.547-.529 0-.991.353-.991.9 0 .501.354.713.77.897l.216.095c.328.15.65.292.65.7 0 .397-.347.686-.727.686s-.657-.294-.709-.655l-.382.108c.11.547.534.912 1.098.912.614 0 1.115-.473 1.115-1.089 0-.56-.393-.787-.85-.99l-.234-.101c-.241-.108-.554-.246-.554-.55 0-.322.272-.547.588-.547.297 0 .467.138.608.383l.313-.202zM8.444 34.754c-.185-.345-.519-.547-.911-.547-.53 0-.991.353-.991.9 0 .501.354.713.77.897l.216.095c.328.15.649.292.649.7 0 .397-.347.686-.726.686-.38 0-.658-.294-.706-.655l-.385.108c.11.547.533.912 1.1.912.614 0 1.112-.473 1.112-1.089 0-.56-.39-.787-.85-.99l-.233-.101c-.239-.108-.554-.246-.554-.55 0-.322.274-.547.587-.547.3 0 .468.138.609.383l.313-.202zM10.833 34.572c.809 0 1.448.66 1.448 1.457 0 .795-.647 1.458-1.448 1.458-.8 0-1.448-.663-1.448-1.458 0-.797.637-1.457 1.448-1.457m0-.366c-1.009 0-1.843.821-1.843 1.828 0 1.015.834 1.816 1.843 1.816 1.01 0 1.843-.8 1.843-1.816 0-1.007-.834-1.828-1.843-1.828M15.937 34.554c-.315-.235-.662-.347-1.055-.347-1.014 0-1.843.825-1.843 1.835 0 1.003.845 1.808 1.843 1.808.375 0 .75-.125 1.055-.345v-.486c-.28.281-.672.465-1.07.465-.793 0-1.435-.68-1.435-1.454 0-.778.637-1.458 1.427-1.458.406 0 .799.177 1.078.466v-.484zM16.64 37.79L17.033 37.79 17.033 34.27 16.64 34.27zM19.643 36.427h-1.197l.606-1.411.59 1.411zm.154.366l.418.997h.436L19.06 34.1l-1.63 3.69h.431l.426-.997h1.51zM21.621 34.634L22.483 34.634 22.483 34.269 20.373 34.269 20.373 34.634 21.228 34.634 21.228 37.789 21.621 37.789zM22.912 37.79L23.304 37.79 23.304 34.27 22.912 34.27zM25.694 34.572c.811 0 1.448.66 1.448 1.457 0 .795-.647 1.458-1.448 1.458-.8 0-1.448-.663-1.448-1.458 0-.797.64-1.457 1.448-1.457m0-.366c-1.009 0-1.843.821-1.843 1.828 0 1.015.834 1.816 1.843 1.816 1.01 0 1.843-.8 1.843-1.816 0-1.007-.834-1.828-1.843-1.828M28.126 37.79L28.519 37.79 28.519 35.075 31.279 37.949 31.279 34.27 30.883 34.27 30.883 36.995 28.126 34.119zM35.163 34.572c.811 0 1.448.66 1.448 1.457 0 .795-.647 1.458-1.448 1.458-.8 0-1.448-.663-1.448-1.458 0-.797.64-1.457 1.448-1.457m0-.366c-1.009 0-1.843.821-1.843 1.828 0 1.015.834 1.816 1.843 1.816s1.843-.8 1.843-1.816c0-1.007-.834-1.828-1.843-1.828M39.179 34.634L39.179 34.269 37.572 34.269 37.572 37.789 37.965 37.789 37.965 36.043 39.141 36.043 39.141 35.68 37.965 35.68 37.965 34.634zM42.22 34.634L43.083 34.634 43.083 34.269 40.975 34.269 40.975 34.634 41.827 34.634 41.827 37.789 42.22 37.789zM43.887 34.27h-.392v2.201c0 .404.036.726.346 1.02.239.235.58.358.914.358.357 0 .709-.138.953-.401.28-.29.308-.59.308-.977V34.27h-.393v2.094c0 .278.015.585-.175.81-.161.197-.439.312-.693.312-.26 0-.557-.12-.711-.335-.164-.225-.157-.524-.157-.787V34.27zM47.134 36.245h.097l1.068 1.544h.485l-1.126-1.577c.544-.046.888-.43.888-.972 0-.793-.624-.969-1.294-.969h-.511v3.518h.393v-1.544zm0-1.61h.118c.47 0 .898.055.898.633 0 .547-.449.63-.896.63h-.12v-1.264zM49.696 35.778L49.696 34.269 49.303 34.269 49.303 37.79 49.696 37.79 49.696 36.271 49.794 36.174 51.244 37.79 51.786 37.79 50.071 35.908 51.729 34.269 51.2 34.269zM52.2 37.79L52.593 37.79 52.593 34.27 52.2 34.27zM55.234 34.754c-.188-.345-.521-.547-.914-.547-.526 0-.991.353-.991.9 0 .501.357.713.77.897l.216.095c.328.15.652.292.652.7 0 .397-.347.686-.73.686-.377 0-.656-.294-.705-.655l-.383.108c.108.547.534.912 1.1.912.613 0 1.11-.473 1.11-1.089 0-.56-.39-.787-.847-.99l-.236-.101c-.238-.108-.552-.246-.552-.55 0-.322.272-.547.586-.547.3 0 .467.138.608.383l.316-.202zM56.37 35.698L56.37 34.269 55.977 34.269 55.977 37.789 56.37 37.789 56.37 36.064 58.179 36.064 58.179 37.789 58.572 37.789 58.572 34.269 58.179 34.269 58.179 35.698zM61.722 34.634L62.584 34.634 62.584 34.269 60.477 34.269 60.477 34.634 61.329 34.634 61.329 37.789 61.722 37.789zM63.399 36.245h.097l1.068 1.544h.485l-1.126-1.577c.544-.046.888-.43.888-.972 0-.793-.624-.969-1.297-.969h-.508v3.518h.393v-1.544zm0-1.61h.115c.473 0 .901.055.901.633 0 .547-.449.63-.896.63h-.12v-1.264zM67.45 36.427h-1.196l.608-1.411.588 1.411zm.157.366l.418.997h.434l-1.591-3.69-1.628 3.69h.431l.426-.997h1.51zM68.496 34.27L68.069 34.27 69.504 38 70.937 34.27 70.511 34.27 69.504 36.954zM71.346 37.79L73.179 37.79 73.179 37.425 71.739 37.425 71.739 36.042 73.135 36.042 73.135 35.681 71.739 35.681 71.739 34.635 73.179 34.635 73.179 34.27 71.346 34.27zM74.262 34.27L73.869 34.27 73.869 37.79 75.237 37.79 75.237 37.425 74.262 37.425zM78.98 36.427h-1.197l.606-1.411.59 1.411zm.156.366l.416.997h.437l-1.592-3.69-1.63 3.69h.431l.429-.997h1.51zM82.213 36.02v.366h1.05c0 .652-.646 1.1-1.26 1.1-.372 0-.747-.19-1.006-.448-.26-.266-.411-.622-.411-.995 0-.795.637-1.47 1.445-1.47.519 0 .917.245 1.212.662l.287-.266c-.374-.486-.875-.762-1.494-.762-1.019 0-1.843.824-1.843 1.834 0 .989.824 1.81 1.818 1.81.493 0 .985-.215 1.309-.588.323-.374.375-.765.364-1.243h-1.47zM84.274 37.79L86.107 37.79 86.107 37.425 84.667 37.425 84.667 36.042 86.064 36.042 86.064 35.681 84.667 35.681 84.667 34.635 86.107 34.635 86.107 34.27 84.274 34.27zM86.819 37.79L87.214 37.79 87.214 35.075 89.971 37.949 89.971 34.27 89.576 34.27 89.576 36.995 86.819 34.119zM93.435 34.554c-.314-.235-.663-.347-1.055-.347-1.014 0-1.844.825-1.844 1.835 0 1.003.845 1.808 1.844 1.808.374 0 .75-.125 1.055-.345v-.486c-.28.281-.673.465-1.07.465-.794 0-1.436-.68-1.436-1.454 0-.778.64-1.458 1.427-1.458.406 0 .799.177 1.079.466v-.484zM94.136 37.79L94.529 37.79 94.529 34.27 94.136 34.27zM95.255 37.79L97.088 37.79 97.088 37.425 95.647 37.425 95.647 36.042 97.044 36.042 97.044 35.681 95.647 35.681 95.647 34.635 97.088 34.635 97.088 34.27 95.255 34.27zM99.695 34.754c-.185-.345-.519-.547-.912-.547-.529 0-.99.353-.99.9 0 .501.354.713.77.897l.215.095c.329.15.65.292.65.7 0 .397-.347.686-.727.686s-.657-.294-.706-.655l-.385.108c.11.547.534.912 1.101.912.614 0 1.112-.473 1.112-1.089 0-.56-.39-.787-.85-.99l-.233-.101c-.24-.108-.555-.246-.555-.55 0-.322.275-.547.588-.547.3 0 .467.138.608.383l.314-.202zM1.63 28.944L2.341 28.944 2.341 28.348.226 28.348.226 28.944.94 28.944.94 31.869 1.63 31.869zM3.039 30.452c0 .862.367 1.511 1.314 1.511.948 0 1.31-.65 1.31-1.511v-2.104h-.686v1.969c0 .434-.038 1.045-.624 1.045-.588 0-.623-.61-.623-1.045v-1.97h-.691v2.105zm1.81-3.37c-.206 0-.375.166-.375.374 0 .204.17.373.375.373s.377-.169.377-.373c0-.208-.172-.374-.377-.374zm-.991 0c-.206 0-.372.166-.372.374 0 .204.166.373.372.373.208 0 .377-.169.377-.373 0-.208-.17-.374-.377-.374zM7.313 28.906h.093c.367 0 .642.085.642.52 0 .429-.265.542-.647.542h-.088v-1.062zm.701 1.476c.475-.077.724-.527.724-.977 0-.752-.482-1.058-1.18-1.058h-.935v3.52h.69v-1.416h.008l.86 1.416h.834l-1-1.485zM10.405 29.833L10.394 29.833 10.394 28.347 9.706 28.347 9.706 31.868 10.394 31.868 10.394 30.285 10.405 30.285 11.534 31.868 12.42 31.868 11.003 29.973 12.345 28.347 11.498 28.347zM13.091 31.869h.922v-3.52h-.922v3.52zm.463-4.456c-.274 0-.5.168-.5.375 0 .205.226.371.5.371.277 0 .5-.166.5-.37 0-.208-.223-.376-.5-.376zM15.499 30.252L15.499 31.868 16.189 31.868 16.189 30.252 17.303 28.348 16.497 28.348 15.822 29.57 15.203 28.348 14.4 28.348zM19.778 28.944L19.778 28.348 17.95 28.348 17.95 31.869 19.778 31.869 19.778 31.271 18.641 31.271 18.641 30.317 19.734 30.317 19.734 29.721 18.641 29.721 18.641 28.944zM26.286 28.647c-.216-.24-.652-.391-.965-.391-.596 0-1.032.468-1.032 1.053 0 .547.334.775.788.964.277.107.616.21.616.573 0 .27-.177.509-.457.509-.295 0-.544-.243-.637-.514l-.446.434c.244.407.6.688 1.088.688.722 0 1.163-.501 1.163-1.207 0-1.18-1.402-.933-1.402-1.526 0-.228.21-.399.432-.399.228 0 .398.113.529.292l.323-.476zM29.059 28.944L29.059 28.348 27.228 28.348 27.228 31.869 29.059 31.869 29.059 31.271 27.919 31.271 27.919 30.317 29.015 30.317 29.015 29.721 27.919 29.721 27.919 28.944zM30.751 30.252L30.751 31.868 31.442 31.868 31.442 30.252 32.556 28.348 31.75 28.348 31.074 29.57 30.456 28.348 29.652 28.348zM34.393 30.565h-.839l.388-1.279h.01l.441 1.279zm.19.562l.275.741h.737l-1.343-3.612h-.536l-1.376 3.612h.724l.292-.741h1.227zM36.966 29.733L36.966 28.347 36.275 28.347 36.275 31.868 36.966 31.868 36.966 30.296 38.239 30.296 38.239 31.868 38.93 31.868 38.93 28.347 38.239 28.347 38.239 29.733zM41.666 30.565h-.84l.388-1.279h.01l.442 1.279zm.19.562l.275.741h.734l-1.34-3.612h-.537l-1.376 3.612h.724l.293-.741h1.227zM44.414 28.944L45.125 28.944 45.125 28.348 43.012 28.348 43.012 28.944 43.723 28.944 43.723 31.869 44.414 31.869zM51.198 30.565h-.84l.388-1.279h.01l.442 1.279zm.192.562l.272.741h.737l-1.343-3.612h-.534l-1.378 3.612h.726l.293-.741h1.227zM55.444 28.46c-.241-.133-.51-.205-.79-.205-1.035 0-1.74.882-1.74 1.88 0 .97.733 1.827 1.73 1.827.284 0 .541-.09.8-.212v-.816c-.192.22-.487.374-.785.374-.642 0-1.035-.593-1.035-1.187 0-.606.378-1.214 1.04-1.214.298 0 .588.14.78.373v-.82zM58.194 28.944L58.194 28.348 56.364 28.348 56.364 31.869 58.194 31.869 58.194 31.271 57.055 31.271 57.055 30.317 58.151 30.317 58.151 29.721 57.055 29.721 57.055 28.944zM59.117 31.868L59.808 31.868 59.808 29.477 59.815 29.477 61.677 31.937 62.172 31.937 62.172 28.347 61.484 28.347 61.484 30.715 61.476 30.715 59.613 28.255 59.117 28.255zM64.299 28.944L65.01 28.944 65.01 28.348 62.897 28.348 62.897 28.944 63.608 28.944 63.608 31.869 64.299 31.869zM67.202 30.565h-.84l.39-1.279h.008l.442 1.279zm.193.562l.272.741h.736l-1.342-3.612h-.534l-1.379 3.612h.727l.292-.741h1.228zM69.774 28.347L69.083 28.347 69.083 31.868 70.749 31.868 70.749 31.272 69.774 31.272zM73.189 30.565h-.84l.388-1.279h.01l.442 1.279zm.192.562l.272.741h.737l-1.343-3.612h-.534l-1.378 3.612h.726l.293-.741h1.227zM75.76 28.906h.093c.367 0 .642.085.642.52 0 .429-.264.542-.647.542h-.087v-1.062zm.702 1.476c.475-.077.724-.527.724-.977 0-.752-.483-1.058-1.181-1.058h-.935v3.52h.69v-1.416h.011l.857 1.416h.835l-1.001-1.485zM78.151 31.869L78.841 31.869 78.841 28.348 78.151 28.348zM84.086 28.9h.09c.29 0 .498.091.498.452 0 .363-.167.46-.503.46h-.085v-.913zm-.69 2.967h1.083c.642 0 1.132-.306 1.132-.997 0-.388-.187-.81-.606-.884.221-.14.31-.43.31-.683 0-.698-.405-.956-1.062-.956h-.857v3.52zm.69-1.531h.113c.347 0 .721.018.721.476 0 .46-.318.503-.687.503h-.147v-.979zM86.465 31.869h.921v-3.52h-.921v3.52zm.466-4.456c-.274 0-.504.168-.504.375 0 .205.23.371.504.371s.496-.166.496-.37c0-.208-.222-.376-.496-.376zM88.792 28.906h.095c.364 0 .641.085.641.52 0 .429-.267.542-.646.542h-.09v-1.062zm.703 1.476c.475-.077.724-.527.724-.977 0-.752-.485-1.058-1.183-1.058H88.1v3.52h.69v-1.416h.011l.857 1.416h.835l-.999-1.485zM91.875 28.347L91.185 28.347 91.185 31.868 92.851 31.868 92.851 31.272 91.875 31.272zM93.536 31.869h.922v-3.52h-.922v3.52zm.47-4.456c-.278 0-.504.168-.504.375 0 .205.226.371.504.371.274 0 .496-.166.496-.37 0-.208-.222-.376-.496-.376zM96.776 29.995v.563h.75c-.015.424-.375.795-.806.795-.665 0-.999-.65-.999-1.23 0-.586.329-1.26.994-1.26.364 0 .665.24.806.557l.608-.327c-.27-.535-.795-.839-1.396-.839-1.055 0-1.723.864-1.723 1.869 0 .972.65 1.84 1.682 1.84 1.098 0 1.61-.884 1.61-1.878v-.09h-1.526zm-.931-2.651c.038.434.372.728.808.728.437 0 .77-.294.814-.728h-.462c-.041.186-.146.332-.352.332-.205 0-.308-.146-.351-.332h-.457zM99.122 31.869h.922v-3.52h-.922v3.52zm.463-4.456c-.274 0-.497.168-.497.375 0 .205.223.371.497.371.277 0 .503-.166.503-.37 0-.208-.226-.376-.503-.376zM.02.792H13.479V4.75H.02zM33.271.792H99.773V4.75H33.271z" transform="translate(-130.000000, -10945.000000) translate(0.000000, 10010.000000) translate(130.000000, 935.000000)"/>
                        <path d="M22.062 12.42c0-.716.583-1.296 1.301-1.296.72 0 1.304.58 1.304 1.296 0 .716-.585 1.296-1.304 1.296-.718 0-1.301-.58-1.301-1.296M22.062 8.153c0-.716.583-1.296 1.301-1.296.72 0 1.304.58 1.304 1.296 0 .716-.585 1.297-1.304 1.297-.718 0-1.301-.58-1.301-1.297M39.67 12.477h.506c1.135 0 2.123.168 2.123 1.562 0 1.345-1.083 1.51-2.169 1.51h-.46v-3.072zm-6.46 13.16h6.46v-5.81h.121l2.893 5.81h7.622l-3.956-5.884c-.362-.527-.77-.816-1.109-1.081v-.144c2.46-.815 3.52-1.968 3.52-4.707 0-4.56-3.473-6.292-7.57-6.292h-7.982v18.107zM72.359 19.08l1.206-5.522h.24c.12.77.24 1.56.433 2.33l.773 3.193h-2.652zm-1.184 4.298h4.99l.607 2.258h6.99L77.277 7.53h-7.306l-6.317 18.107h6.993l.528-2.258zM90.163 18.313h.65c1.062 0 2.749-.026 2.749 1.488 0 1.49-1.566 1.513-2.652 1.513h-.747v-3.001zm-6.125 7.322h8.993c3.183 0 6.656-1.27 6.656-4.993 0-2.163-1.253-3.602-3.232-4.3v-.144c1.592-.503 2.387-2.063 2.387-3.648 0-4.18-3.593-5.019-7.113-5.019h-7.691v18.104zm6.125-11.142v-2.592h.457c.965 0 2.195-.095 2.195 1.247 0 1.25-1.086 1.345-2.051 1.345h-.6zM30.164 3.14c-.01.002-.015 0-.018.005-.005.005-.01.007-.015.01-.005.005-.028.018-.036.023-.01.005-.03.008-.033.013-.003.005-.008.013-.013.018-.005.007-.036.03-.041.03-.005 0-.008.003-.016.005-.005.003-.038.02-.04.026-.006.005-.006.005-.006.01 0 .008-.002.016-.01.013-.008-.005-.02-.02-.023-.02-.005 0-.016.002-.023.005-.008.002-.016.005-.02.023-.003.02-.003.04-.019.048-.015.005-.033.018-.038.02-.005.006-.018.021-.016.034 0 .01.005.023-.002.03l-.013.026c-.003.005-.005.023-.013.033-.005.01-.008.02-.015.026-.008.005-.029.02-.02.023.007 0 .025-.008.03-.01.005 0 .002-.003.008-.008.002-.007.005-.015.012-.015.008-.003.026.008.018.01-.007.003-.02.003-.012.008.002.005.012.01.015.018.005.007.041.025.041.025.018.008.039.018.046.018.005 0 .016.003.016.008.002.005.015.046.015.059 0 .012.008.071-.01.071-.016 0-.031 0-.041.008-.008.005-.005.005-.013.013l-.015.015c-.008.005-.021.018-.029.028-.007.013-.015.023-.025.03-.006.008 0 .008 0 .016.002.008.002.01 0 .015 0 .006-.013.01-.024.008-.012-.002-.033.005-.04.008l-.042.007c-.005 0-.025-.01-.033-.015-.01-.008-.018.003-.028.003-.01.002-.01-.01-.008-.018v-.026c-.003-.007-.018-.03-.023-.038-.005-.005-.015-.008-.015-.013-.003-.008.017-.008.023-.013.005-.002-.008-.018-.013-.023-.005-.005-.028 0-.036 0-.01 0-.016-.038-.018-.046-.005-.01-.008-.005-.013-.002-.005 0 .005.023 0 .03-.003.008-.023.005-.03.008-.006.003-.011.005-.014.013 0 .01-.023.02-.033.023-.01.002-.038.01-.049.008-.01 0-.018-.024-.023-.036-.005-.013-.043-.01-.054-.01-.007 0-.02-.006-.025-.01-.008-.006-.018-.006-.029.002-.007.007-.01.015-.018.02-.005.008-.007.008-.012.008h-.036c-.006 0-.008-.013-.008-.018-.003-.008-.018-.018-.026-.02-.01 0-.005.002-.005.01 0 .005-.01.01-.018.013-.008.002-.018 0-.026 0-.007-.003-.03.012-.04.015-.013.002-.021-.013-.016-.02.005-.008.023-.013.033-.016.008-.002.005-.018.005-.028 0-.01.01-.013.016-.023.005-.01.013-.008.023-.01.01 0-.003-.013-.01-.018-.005-.005 0-.008.005-.013.005-.005.013-.008.018-.008.008.003.018 0 .038-.007.02-.01.01-.005.01-.013 0-.005-.017-.003-.025-.003s.002-.007.005-.012-.01-.02-.013-.028c-.005-.01-.015-.01-.018-.023-.007-.01.003-.039.008-.044.003-.008.02-.013.026-.015l.028-.016.026-.007c.007-.005.023-.008.025-.01.005 0 .041-.021.049-.024.008-.002.036-.005.046-.005.01 0 .013-.01.026-.015.01-.008.03 0 .038 0s.039.008.044.008c.005 0 .013-.003.02-.005l.052-.018c.008 0 .026.007.033.01.01.005.02-.003.031-.008.013-.005.036-.005.046-.002.01 0 .041-.013.049-.02.008-.008.026-.021.033-.026.008-.005.018-.02.029-.028.007-.008.005-.024.005-.031-.003-.008.007-.016.01-.023.005-.01-.044-.013-.051-.013-.01 0-.01.003-.013.013-.005.007-.003.01.002.013l.026-.003c.01.003-.002.02-.008.028-.005.005-.038.003-.04 0-.008 0-.01-.01-.01-.018 0-.007-.006-.01-.014-.018-.007-.01-.015-.007-.02-.01-.005-.005.002-.013.005-.018.002-.007.002-.007.002-.018.003-.007.024-.002.031 0 .005.003.031-.015.036-.018.005-.002.031 0 .044 0 .013-.002.025-.01.03-.015.003-.005.016-.01.024-.01.005-.003.038.002.048 0 .01-.005 0 0 0-.008 0-.005.006-.005.013-.005.005-.002.01-.008.013-.01.003-.005.01-.005.013-.008.005-.005.008-.005.018-.013.013-.007.015-.01.026-.01.01 0 .023-.005.033-.005.01 0 .02 0 .03.003.014.002.024.002.032.005 0 0 .01.005.02.005s.026-.003.034.002c.007.003.02.01.023.01.005 0 .023.01.028.013.005 0 .03.008.02.01zm-8.412.797c-.005.016-.023.018-.046.028-.023.01-.044.05-.052.077-.007.026-.05.041-.071.049-.021.005-.024-.046-.029-.062-.002-.015-.064-.05-.087-.066-.02-.018-.1-.067-.113-.077-.015-.007-.056-.038-.095-.064-.036-.028-.008-.133-.005-.15.005-.021.01-.062.015-.085.003-.02.029-.005.041-.005.01 0 .02 0 .029-.01.005-.008.03-.003.051-.01.02-.008.026-.02.036-.031.008-.013.002-.039.002-.054s-.012-.046-.017-.059c-.008-.015.002-.04.002-.048s-.01-.013-.02-.023c-.01-.013.005-.013.015-.02.01-.008.026.012.036.025 0 0 .015.02.036.043.023.023.028.026.038.054.013.028.01.036.01.054 0 .015-.012.023-.028.028-.015.002-.01.028-.007.048.002.02-.005.02-.01.036-.006.016.02.033.04.051.024.018.042.044.06.062.02.023.017-.02.017-.039 0-.018.003-.025.013-.038.01-.015.029.03.031.043.003.013.016.029.023.041.01.013.003.026-.002.031-.003.005.018.036.025.051.008.016.016.026.018.041.005.015.034.046.039.051.005.008.013.016.005.028zm9.437 1.276l-.02-.013-.016-.012v-.029l-.031-.007-.02.007-.026-.033-.005-.028-.02-.013-.024-.033.005-.051v-.049l.018-.038s-.005-.018-.018-.026l-.013-.007s-.015-.036-.002-.041l.04-.018.014-.026-.008-.017-.013-.018-.023-.008-.036-.028-.028.015h-.034l-.007-.033-.018.01-.029-.005v-.054l-.015-.02-.018-.005h-.041l-.026.007h-.02l-.01-.028-.006-.02.01-.023.014-.054.005-.028.013-.02.015-.02.01-.034.008-.02.046-.01.003-.031.012-.034.003-.025.01-.036.003-.038.033-.003.031-.026.013-.015.01-.025-.018-.026-.018-.013-.013-.007-.02-.008-.03.025-.04-.017-.025-.01-.013-.044v-.036l.008-.018.005-.069v-.02l.005-.036v-.026l-.018-.023-.028-.023-.01-.023-.008-.053.028-.029.013-.025.01-.036s.003-.051-.01-.051h-.033l-.008-.015-.018-.02-.01-.019-.041-.028.005-.043v-.02l.02-.034-.018-.04.018-.034.005-.033-.023-.046c-.033-.008-.056-.02-.056-.02l-.013-.024s-.015-.028-.015-.046.007-.033.007-.033v-.028l-.028-.041-.005-.033.005-.041.02-.003.034.005.03.005.04-.015s.007-.013.02 0l.013.01.036.01.038.013.036-.023.046-.015.01-.041-.002-.036v-.053L30.9 2.8l.02-.008.021-.038.008-.029V2.66l.023-.015.026-.031.04-.023.044.061.026.008.039-.003.02.031.013.023.018.018.03-.003-.02-.038-.018-.03-.018-.018-.005-.02-.015-.006-.02-.03-.014-.019-.03-.007-.036-.036-.026-.051-.033-.041-.021-.02-.013-.021-.023-.023-.026-.005-.04-.02-.031-.021-.021-.02c-.03-.006-.059-.006-.059-.006l-.023-.007-.034-.003c-.038.018-.059.023-.059.023-.023.005-.056 0-.069 0-.013 0-.026-.005-.044-.005-.023 0-.038-.003-.059 0l-.023.005-.043-.02-.034-.028s0-.018-.015-.018h-.036l-.023.005-.028-.008-.02-.015-.014-.036.039-.018.02-.01-.007-.028-.026-.036.013-.051-.026-.013-.036-.04S30.2 1.98 30.2 1.96v-.046l.013-.036-.033-.04-.02-.034.002-.015.018-.013s.015-.008.028-.018l.01-.005.013-.036.03-.018.027-.038.01-.02.01-.021s.013-.013.016-.026c.002-.01.02-.04.02-.04l-.013-.062-.033-.02v-.028l-.016-.046-.017-.031v-.039l-.016-.04-.02-.008-.021-.005-.041-.023-.026-.018-.03-.013-.039-.04-.008-.029.016-.04.01-.021-.013-.046-.026-.02-.012-.016c-.034 0-.034.002-.05 0l-.015-.005-.036.015-.046.018-.01-.02-.008-.026-.013-.038h-.046l.054-.049V.882h-.02L29.823.87 29.79.857l-.018-.024-.029-.007-.036-.018-.015-.015-.005-.026-.013-.023-.018-.013-.013-.025-.025-.008-.016-.026-.043.026-.026-.015.013-.105-.031.005-.049-.026-.023.005s-.013 0-.026.003c-.012.005-.038.005-.038.005h-.018s-.03.033-.036.046c-.003.013-.003.036-.003.036V.67l-.038.036-.008.02-.01.023h-.018l-.02-.005-.029-.013-.018-.023h-.07L29.08.683l-.036.002-.021-.002-.013-.026-.051.015-.023.006h-.046l-.065-.031-.03.018s-.003.005-.029.02l-.025.016-.018.033-.02.015-.032-.005-.018-.023h-.023l-.02-.02S28.6.657 28.58.67c-.02.013-.059.02-.059.02l-.018-.025-.025-.008-.026.015-.04.046-.016.031-.026.026-.033.02-.018.008s-.016.01-.031.013l-.016.005-.023.02-.023.02-.023.016-.059.01-.01.03-.016.019-.03.023-.031.03c-.039.016-.067.016-.067.016l-.018.013s-.023.012-.023 0c0-.013-.028-.008-.028-.008l-.031.036-.033.012-.036.013-.029.016s-.012.033-.02.046l-.01.012s-.026.008-.044.02l-.015.011h-.052c-.025.013-.049.023-.049.023h-.069s-.02 0-.036.008l-.018.007-.04.041s0 .008-.011.018l-.013.008-.059.023-.041.018-.039.005c-.036-.005-.064-.018-.064-.018l-.015-.02-.064-.006-.023.013-.039-.015-.062-.018-.02-.01-.028-.013s-.034-.013-.047-.01c-.012.005-.036.01-.036.01l-.046-.013-.03-.02-.018-.026-.013-.023-.034-.025-.028-.02h-.023s-.026.015-.039.015c-.012 0-.018-.013-.033.005-.018.015.013-.008-.018.015l-.026.026-.025.002-.031-.015-.039-.016-.038.003s-.013-.003-.041.018l-.028.02s-.008.008-.026.008h-.046l-.028-.02h-.024l-.033.015-.036.013-.033.025s-.013-.005-.023.008c-.008.013.012.005-.008.013l-.02.007-.026.018-.018.003-.034-.008-.038.015-.03.026-.065.008h-.028l-.034.005h-.059l-.028-.018h-.018l-.038-.003h-.026l-.044-.005-.03-.013h-.021l-.041-.002-.018-.005-.026-.003-.03-.013-.026-.012-.031-.02-.02-.014-.021-.007-.039-.005-.005-.028-.005-.026-.008-.036h-.03c-.013 0-.062-.015-.062-.015l-.023.036-.026.048-.026.013h-.04l-.06-.036-.04-.013-.032-.025-.03-.015-.041-.013s-.006-.005-.024-.008l-.064-.018-.056-.002-.036-.008-.039-.013-.01-.061V.956l-.02-.038-.026-.008-.03-.015-.04-.028-.03-.013s-.02.003-.026-.008c-.002-.013-.033-.01-.033-.01l-.057-.008-.04-.012s-.042-.013-.05.01c-.007.02-.005.04-.005.04l-.007.024s-.003.005-.016.015c-.013.013-.023.01-.036.018l-.007.008-.065.023-.064-.023-.059-.057-.023-.012s-.013-.008-.013-.02c0-.014.003-.05-.01-.055l-.01-.002-.031-.026-.026-.015-.023-.03-.013-.021V.57l-.007-.033-.013-.033-.008-.026-.03-.018S23.812.455 23.8.447C23.793.44 23.775.43 23.775.43l-.026-.008-.038.005s.005 0-.023.008c-.029.007-.029.007-.05.015l-.043.018s-.018-.005-.03.008c-.013.012-.003.002-.034.015-.03.013-.033.01-.051.018-.013.007-.026.007-.052.013-.025.005-.069.005-.069.005L23.313.5c-.005 0-.034-.018-.034-.018l-.02-.015-.08-.038-.036-.049-.02-.02s0-.021-.013-.029c-.013-.01-.039-.025-.039-.025l-.015-.023-.03-.1-.011-.036.023-.038.03-.015.04-.018-.01-.026-.021.013-.026.005-.03-.005L23 .06l-.021-.028L22.966 0h-.056l-.039.033s-.007.023-.013.036l-.005.013-.038.048s-.013.013-.031.02l-.049.026c-.02.008-.03.013-.043.008-.013-.005-.044-.005-.057-.005h-.044l-.05-.02-.027-.008-.018-.015-.061.015c-.018.005-.044.018-.044.018h-.166L22.192.15l-.025-.013s0-.008-.044 0c-.038.01-.013.01-.038.01-.031 0-.098-.01-.11-.01h-.139l-.054-.01S21.73.11 21.719.11c-.013 0-.036-.005-.036-.005s-.023-.01-.044-.01c-.02 0-.033-.008-.049-.008h-.056c-.013 0-.023 0-.036.002-.01.006-.003.006-.028.026-.024.02-.052.028-.065.033-.012.003-.012 0-.033.008-.023.008-.046.023-.062.023-.018 0-.038.013-.038.013l-.049.02-.015.008-.034.01-.023.015s0 .01-.015.013c-.016.005-.054.026-.049.02.005-.004-.033-.004-.033-.004h-.041l-.036.01s-.01.007-.034.01c-.025.005-.04.018-.054.023-.012.003-.033-.005-.04.005-.01.013-.026.018-.026.018l-.029.018-.02.015-.06.026s-.007 0-.025.01c-.023.013-.03.018-.046.03l-.018.011-.018.023-.026.028-.018.013-.028.036-.013.02-.02.005-.02.003-.029.005s-.033 0-.046.008c-.013.007-.036.012-.036.012s0 .02-.02.026c-.021.003-.026.008-.044.015-.016.008.023-.02-.016.008l-.036.03-.02.036-.057.016s-.03.025-.043.028c-.013.005.013-.018-.013.005-.023.026-.049.033-.049.033l-.067.041c-.025.016-.033.02-.048.028l-.016.008-.013.04s.005.006-.007.024c-.013.015-.02.04-.02.04s-.019.011-.019.024c0 .013-.013.033-.013.033s-.018.026-.038.033l-.052.016s-.007.012-.033.018c-.023.002-.036 0-.062.007-.025.008-.038.003-.056.008-.02.005-.02 0-.051.005-.029.003-.026.003-.05.008-.022.005-.043.007-.056.007h-.012c-.026 0-.062-.012-.062-.012s-.008-.008-.039-.008c-.028 0-.059-.008-.059-.008l-.038-.013-.02-.007-.047-.008h-.093l-.022-.013-.06-.033-.038-.018-.03-.002s-.011 0-.024.007c-.013.008.013-.005-.013.008-.025.013-.074.013-.09.023-.018.008-.023.002-.043.008-.018.002-.052.01-.07.01h-.048c-.02 0-.075.005-.093 0-.013-.003-.018-.01-.043-.01-.026 0-.039-.006-.06-.006-.017 0-.05-.007-.05-.007l-.052-.013-.049-.02s-.013-.013-.038-.016c-.023-.005-.034-.01-.057-.01h-.067l-.036-.01-.059-.023-.059-.003-.023.049-.015.036-.005.01-.02.033-.021.008h-.023l.023-.046.04-.049.006-.033-.03-.015s-.032.01-.045.01c-.012 0-.015 0-.04-.005-.026-.01-.042-.018-.042-.018L17.76.928l-.036-.013-.067-.033-.046-.013-.025-.012-.031-.016-.016-.008-.038-.012-.041-.028-.029-.018s-.005 0-.017-.008l-.031-.02-.026-.02L17.33.7l-.062-.029-.02-.007-.02-.018c-.014-.008.012.03-.014-.008-.025-.036 0-.007-.025-.036-.023-.028-.008-.005-.023-.028l-.031-.043s-.016-.005-.02-.018C17.11.5 17.1.476 17.1.476s0-.016-.012-.029c-.013-.012-.026-.038-.026-.038l-.008-.028-.013-.033-.01-.031-.008-.026c-.005-.012-.007-.028-.007-.028l.002-.025.026-.008.018.02.018-.005-.016-.11h-.04l-.067.016V.1h-.036l-.039.025v.046h-.026V.136h-.077l-.018.035h-.071l-.031.026v.015l-.026-.028V.156h-.067l-.018-.028V.11L16.525.1 16.51.06s.01-.01 0-.02c-.013-.013-.039-.026-.039-.026s-.02.013-.033 0C16.425.003 16.376 0 16.376 0l-.033.036-.026-.008-.028.005L16.274 0h-.057v.036l-.013.013v.025l-.033.013v.018h-.059l-.056.025-.052-.025-.023.03-.02.016s-.013-.008-.031 0l-.016.008-.03-.016-.018-.007-.039.043v.077s.026.015 0 .028c-.026.01.005-.005-.026.01-.025.018-.03.018-.043.018-.013 0-.06.015-.046 0 .005-.005.01-.013.012-.018-.012.018-.056.036-.072.023l-.017-.01V.43l.025.025.064.023h.034l.01.044.018.023h.059l.005.102.016.087.02.053-.013.082h-.118l-.01.041-.02.02-.04.026h-.05l-.018.041v.13l.025.026-.025.023.023.026-.005.04-.018.034.018.038h-.052l-.023.023-.015.026v.015l-.031.018v.036h-.036v.02s.002.013 0 .026c-.005.01-.013.015-.018.028-.003.013-.036.028-.036.028l-.028.02v.067l.015.046h.031l.038.028h.216l.026-.02.056.02.034-.025s.012-.023.025-.023h.013l.044-.008s.033-.005.046-.005c.013 0 .041-.008.041-.008l.03-.01.027.023.007.018.01.018-.005.02-.018.015c-.01.013-.064.031-.064.031h-.033l-.005.018-.013.018H15.9s.006-.018-.017 0l-.026.018-.039.015h-.018l-.025.016h-.018l-.016.02h-.025l-.031.028s0-.023-.013 0c-.008.026-.038.041-.038.041h-.021l-.039.026h-.023l-.012.028-.008.018.013.053.023.016c.013.01-.003.005.013.01.015.002.015.018.002.03l-.03.031-.016.018-.023.036-.003.028-.018.03-.007.039v.02h.046l.02-.028.018-.01.072-.051.023-.033-.005-.049.052-.046.056-.015.039-.059.064-.049.013-.038s-.006-.02.01-.02c.015 0 .033-.016.033-.016l.02-.046.05-.012.048-.05.049-.012s0-.01.026-.015c.03-.005.038-.005.051-.013l.036-.02.023-.026.044-.023.051-.026.02-.012c.013-.003.06-.02.06-.02l.046-.024s.008-.013.01-.025c.005-.013-.02.025.005-.013l.026-.036.044-.04.018-.034s.02-.026.025-.038c.003-.013.01-.031.01-.031l.013-.036.01-.03.013-.021.013-.018c.013-.01.046-.028.046-.028h.095l.054.008.023-.008s.026-.013.031 0l.003.013s.049.007.059.007c.01 0 .028.005.046 0l.015-.002s.013-.03.026-.03.028-.011.028-.011l.08-.064h.13l.021.033.08.005s.008.008.018.013c.013.003.038.013.038.013l.054.018.018-.023.05.028v.038h.027l.026.003.049-.008c.051-.008.09-.008.09-.008s.015 0 .033-.007c.015-.01.033-.018.033-.018l.065.008s.023.012.04.03c.021.016.029.01.042.028.013.016.018.026.03.041.013.016.07.028.07.028l.082.029v.02l-.02.02.035.018v.026l.018.01s.026.008.039.008c.01 0-.026.005.01 0l.036-.003v-.015s.046-.013.057 0l.007.01s.018.008.026.005c.013-.005.036-.01.049-.01h.036l.036.01.02.003.031.005.033.005.023-.013h.052s.002-.01.015 0l.013.008c.018.013 0 .036 0 .036l-.051.012h-.057l-.08.006-.048.012c-.016.003-.067.003-.067.003l-.03-.013-.014-.02h-.018l-.015.012-.033.018h-.036l-.018-.012-.02.02-.016.015-.046.006-.016.007h-.025l-.041-.005h-.036l-.021.013-.036.01-.03-.013h-.021l-.018.02-.016.016-.012.018-.018.003-.018.007s-.02.005-.034.013c-.013.01-.038.013-.038.013l-.026.04v.021l.026.026H17.799c.012 0 .04.007.04.007l.024.005.038.016s.01 0 .023.005c.018.003.034.003.034.003l.03.02s-.005.02-.017.028c-.013.01-.039.013-.039.013l-.008.023-.007.015-.029.008h-.015l-.044-.008-.046-.01-.038-.005h-.077l-.018.002s-.013.013-.031.016l-.016.005-.04.013-.029-.008-.061-.028h-.054l-.05.005c-.032.005-.05 0-.066 0-.018 0-.04-.01-.056-.01-.018 0-.026-.005-.044-.005h-.059c-.026 0-.044-.013-.06 0-.017.012-.053.01-.053.01-.026.015-.049.015-.049.015l-.018.008-.025-.028.038-.013.028-.013.05-.018.007-.03-.008-.026-.059-.01s-.056-.01-.07-.01c-.012 0-.063-.016-.063-.016h-.075l-.02.008-.006.025v.041l.013.018c.023.013 0 .01.023.013.021.005.041.018.041.018l.044.013.018.005.02.023-.046.033s-.012 0-.018.013c-.002.01.031 0-.002.01-.033.013-.062.013-.062.013s-.038-.015-.051-.015h-.039l-.046.002-.023.023s-.018-.01-.03-.01c-.014 0-.029-.003-.029-.003l-.044-.025-.02-.013-.03-.01-.021-.013-.021-.023.008-.028.013-.026-.026-.015-.013-.015-.023.007-.028.008-.018.015-.026-.015s-.023-.015-.036-.008l-.013.008-.028.026s.005.002-.013.015l-.018.013-.018.01s-.02-.005-.04-.005h-.021l-.031-.005-.026-.003-.03-.013-.07.013-.015.008-.023.02-.026.016-.01.017s0 .01-.01.023l-.008.013-.031.026-.018.007-.041.034-.049.033-.018.02-.015.003-.02.04-.011.034-.016.038-.018.016-.017.025-.006.028-.046.029-.043.015h-.029l-.03.023-.003.036.002.048-.012.054.01.038v.044l-.01.038.005.054.005.036-.01.046-.008.015-.005.018s-.023.008-.023.03c0 .026-.01.052-.01.052l-.006.023.013.03s.008-.012.031 0c.026.01.018-.012.059 0 .041.01.07.003.07.003s.004-.008.02-.015c.018-.008.013-.02.046-.02.03 0 .03.002.07-.011.038-.01.038-.018.056-.018h.056l.029-.01.007-.033s0-.003.049-.003h.07s.02-.008.046-.008c.025 0 .05-.01.05-.01l.045-.007s.005.007.007.025c.005.015 0-.005.005.015.006.02-.012.054-.012.054l-.052.018-.038.043v.031l-.026.028h-.013l-.018.023h-.018l-.02.026h-.02l-.027.04-.012.034h.02l.013.023s.008-.003.02 0l.013.005s.01.02.01.033v.013l.04.028.012.02.013.016s.008-.028.013 0c.002.028.015.046.015.046l.018.02.013.021-.02.02-.04.026-.007.008-.013.04.013.029s.008-.02.016 0c.007.02-.016.005.007.02.026.018.026-.02.044 0 .013.02.049.005.049.005l.02.008.026.015.03-.023.021.023-.013.046h-.025l-.046.02.01.026h-.023l-.031.023-.005.034v.025h-.07s-.023-.005-.033 0c-.008.005-.023 0-.023 0l-.02.033-.003.041s.002.023.013.036c.007.013.038.033.038.033s.008 0 .018.02c.008.021.028.04.028.04l.026.035.013.025s0 .008.008.02c.005.011.028.024.028.024h.04s.006-.013.019 0 .026 0 .026 0l.059.008.007.025s.005.008.005.026v.015h-.123l-.018.026h-.043s-.008.002-.02 0c-.014-.005-.045 0-.045 0h-.036l-.005-.016-.015-.025v-.02l-.003-.016-.025-.005-.013.02-.018.041.01.02v.044s-.02.005-.033 0c-.01-.002-.016-.04-.016-.04l.006-.024-.013-.025-.031-.02v-.047l.033-.01.013-.038-.02-.008-.026-.033-.013-.036s.018-.026 0-.03l-.015-.003-.034-.028s-.01-.013-.023-.018c-.013-.003-.023-.02-.033-.02l-.039-.003s-.013-.013-.028.002l-.015.018s-.013.033-.013.044c0 .012-.005.038-.005.038s0 .013.005.023c.002.013.033.033.033.033l.01.026s.008.007.013.02c.003.013.02.028.02.028l.034.026.026.013-.026.015-.008.026c-.005.012-.007.03-.007.03v.023h-.044v.02h-.043l-.018-.017v-.041l-.016.002-.005.036-.008.02s.013.01 0 .024l-.013.012h-.028v.016h.036l.018.025h.039l.015.026h.049l.018.023.02.03h.044l.005.042.02.015h.055l.018-.033.002-.028c0-.013-.059 0 0-.013l.057-.013h.03l.031-.003s.008.026.008.036c.008 0 .02.005.02.005l.01.02c.008.021.008.05.008.05l.008.025v.04l.03.021h.014l.005-.046h.072l.049.013.015.033.026.034h.038l.03.017s.006-.002.019 0c.013.006-.03-.002.013.006l.04.007s0 .026.006.041c.002.018-.013.046-.013.046l-.026.059s.006.02.018.033c.01.013.01.056.01.056l-.028.023s-.04.031-.053.036c-.01.003-.05 0-.05 0h-.058l-.018.023v.028h.013l.033.026h.095l.028.028s-.005 0-.015.02l-.013.031v.028h.018l.02.023-.012.034v.03c0 .01.018.028.018.028l-.026.041.013.049h.097l.005-.046.02-.028.027-.008.025.005.018.02-.02.01-.023.019v.028l.018.025h.038l.013-.04.02.017-.005.023-.02.023.018.026h.046l.036-.026.015.026-.02.015-.013.026h-.013v.04l.008.026-.008.028-.018.02h-.064l-.008-.035-.02-.005-.023-.005-.031.005h-.041l-.02.02-.037.02-.005.027v.017l.01.041s-.005-.002 0 .023c.003.023.023.049.023.049l.034-.018s.008-.003.015-.015l.008-.013s-.003-.013.018-.015c.02-.006.033-.006.044-.006.012 0 .043.008.043.008l.049.023h.018l.038-.01s.031-.003.047 0l.015.005.092.008.042-.008.033-.005c.033-.003.044 0 .064-.003.02-.005.054-.028.054-.028s.01.003.033.003H17.175c.025 0 .064-.003.064-.003l.059-.023s-.015.013.008.023c.025.005-.029.03-.029.03s-.005-.002-.018 0l-.043.019-.016.01-.02.018h-.118l-.031.02v.046h.03s.019 0 0 .023l-.02.026-.01.02h.033s.01.023 0 .034l-.01.007h-.108s-.005.018-.03 0l-.026-.018h-.07l-.033-.007-.051.005-.018.028c-.003.015-.02.015-.02.015s.017-.01-.026 0c-.039.013-.047-.015-.06 0-.012.018-.038.026-.038.026s-.03-.028-.033 0c-.005.028-.005.046-.005.046h-.031l-.018.028s.01.02.03.026c.019.002.04 0 .04 0l.068-.018.018-.008h.047l.02.008.026-.016.025-.028.018-.025.026-.028c.062.007.095.007.095.007l.064.008H17.05l.044-.03.025-.052.02.02.019.018-.023.016s-.02.02-.034.025c-.012.003.013.02.013.02l-.033.008-.031.008-.018.018-.028.003.028.02h.044l.023.003v.023l-.036.02h-.031v.046h.074l.018-.025c.034-.029 0-.013.034-.029l.03-.018s.003-.023.016-.023h.013l.013-.043h.038l.016-.03c-.02-.019-.006.015-.02-.019-.016-.033-.03-.048-.03-.048s-.012-.02.006-.02c.015 0 .02-.016.02-.016s.016-.013.026-.005c.013.008.031.036.031.036l.013.02.02.01.02-.01.016-.04.016-.029s.023-.013.025 0c.005.013.005.033.005.033v.02l.013.016h.034l.023-.02.02.007.041.026v.033l-.007.028.048.02.034.006s.008 0 .02.005l.013.003h.031l.005.017.018.016.008.02.002.028v.031h.039V5.96l-.013-.026V5.91l.013-.018.026-.008.015-.018s.015-.008.046.005c.028.013.06.023.06.023l.03.01.02.023-.012.02-.039.006-.013.015c-.005.026-.012.049-.012.049v.038h.038l.005-.02.02.02h.021s.013.008-.002.02c-.018.014-.008-.007-.018.014-.008.02.01.053.01.053l.003.036v.02l.005.034h.038s-.005.002.01.015l.034.026.054.053.04.028h.075l.036.031h.077l.031.018h.015l.006.03c.033.024.007.019.033.024l.026.005h.113s.012-.033.025-.033c.013 0-.02.023.013 0 .033-.026-.005 0 .033-.026l.036-.023.05.008h.022v-.02s.029-.029.044-.029h.046l.041-.046s.005-.013.023-.008c.02.003.02 0 .052.008l.028.008.03.007s.019 0 .032.006l.012.005v.056l.044.005v-.033s.008-.02.02-.026c.013-.002.026-.023.026-.023v-.02l.026-.026-.034-.033-.005-.033.005-.016c.021-.02.034-.038.034-.038-.005-.018 0-.049 0-.049l.02-.023v-.023l.029-.028v-.02l-.02-.036V5.91l.02-.026-.02-.033V5.81l.02-.028v-.035l.02-.02.026-.014c.026 0 .051-.01.072 0 .023.008.095.016.095.016l.066-.008h.047s.015 0 .036.008c.023.007.056.007.056.007s.005 0 .023.005c.016.006.036.006.054.008.018.003.051.003.051.003s.018-.003.039.01l.02.013s.01.002.034.012l.049.016.02.013s.005.007.023.012c.013.003.039.003.039.003s.018.013.025.025l.008.013s.026.02.041.023l.016.005s.018 0 .03.01c.013.013.034.024.034.024s.013.002.023.012c.013.008-.01 0 .038.023.05.026.003.026.05.026.043 0 .079.005.079.005l.015.008.031.03.018.013.015.013s.013.008.026.013c.013.002-.013-.016.013.002l.026.023.018.02c.023.021.005-.007.023.021.015.028.015.033.023.049l.01.015s-.03-.007 0 .026c.028.033.051.056.051.056l.02.018v.015l.024.02s.008.019.02.026c.013.008.013.013.029.018l.015.003v.025s.008 0 .026.016l.015.015.031.018.015.025h.021v.018s.028-.018.046 0l.016.023.036.02c.03.021 0 .011.03.021.029.008.11 0 .11 0l.047.003h.044l.02-.036.06-.018s0-.015.027-.013l.06.01.025.003.018-.02c.028-.008.051-.008.051-.008s.026-.008.047 0c.025.008.05-.003.05-.003l.045-.005.025-.033s.008.008.02.015c.014.01.047.01.047.01l.033.013h.016s.007-.01.03-.01l.042-.002V6.45s.007-.01.028-.01h.054l.028-.021s.008-.005.015-.02l.008-.016.026-.03s.013-.008.02-.021c.01-.013.026-.02.026-.02s.018-.02.03-.02c.014 0 .024-.009.037 0 .01.007 0 .045 0 .045l.005.023.028.005V6.32l.026-.007.038-.016.039-.046V6.18l.025-.016s.003.005.013-.002l.052-.031.018-.028.056-.102.02-.013.04-.044.033-.025.046-.028.043-.018.023-.03.021-.032.046-.01c.018-.01.041-.018.041-.018l.034-.012h.069l.033.005s.013 0 .026.012l.013.013s.015.016.03.023l.04.02s0 .006.015.013c.018.008.048.016.048.016l.041.02s.006-.002.026.013c.02.015 0-.008.02.015l.021.026.028.028s.018 0 .047.018c.028.015.048.023.048.023l.034.03.04.003.042-.015s-.013-.005 0-.018l.013-.01h.051l.018.002s.028.005.046.005h.016l.04-.025v-.041l.021-.033.026-.01v-.021l.02-.01v-.03h-.02l-.013.014s-.033.003-.044.013c-.012.008-.038.008-.038.008v-.026l.038-.023s-.012-.012.016-.018l.028-.005c.034-.002.06-.01.06-.01l.03.01h.026l.018-.01.02-.025.016-.018.02-.01.016-.054.025-.026.064-.02.044.005s.013.013.015.028c.006.018.018.028.034.038l.015.008.031.026s.003.015 0 .028c-.005.012.003.028 0 .043 0 .018 0 .041.003.059V5.98l-.021.005-.02.013-.042.028-.02.016-.02.012-.05.06-.04.022-.044.008-.01.033v.038l-.029.008s.005.01-.007.02c-.013.008-.039.003-.052.029l-.013.025s.042.016.047.028c.005.013.03.054.03.054l.093.217-.041.07-.005.03h.082l-.005.023.023.02h.059l.051.075.034-.136s.025 0 .023-.018c-.005-.015.02-.023.02-.023l.036.013v-.043l.054.025.02-.015v-.218l.024-.01.04.005.026-.01.018-.023s0-.002.023.005c.026.008.05.013.05.013l.038.008.02-.013.016-.026v-.035s.033-.016 0-.034l-.031-.015-.026-.02-.005-.041-.023-.054-.03-.018-.006-.036.023-.033v-.036l.003-.038.018-.041-.005-.033V5.89l.02-.013.018-.046.013-.03.015-.031.031-.044.049.036.023.002.059.018.036.013.07-.005v.046l.048.008v.074l.03.013.024-.006.018-.023.03.003h.08s.034.013.047.02c.01.008.04.008.04.008l.044.013.031.01.03-.028c0-.003 0-.005.003-.005v-.018h.01c.011-.01.024-.018.04-.02l.033-.02.071-.024.072-.005.036.005.052-.036.071-.048s.01-.01.026-.01c.018 0 .039-.02.039-.02s.023-.006.038-.014c.018-.01.057-.028.057-.028l.046-.01.044-.003.056-.012h.074s0-.01.026 0l.023.007.031.02.015.016s.039.026.05.026c.012 0-.009-.026.012 0 .02.023.028.046.028.046l.023.012.044.023.028.054.039.013c.018.005.043.013.07.013h.063l.072-.008.057.01s.018.01.046.013l.03.003h.152c.033 0 .116-.036.116-.036l.107-.008.08-.04h.09l.043-.034.085-.026s.044-.017.062-.028l.056-.028s.023-.013.036-.013c.013 0 .026-.007.039-.007.01 0 .036-.016.036-.016v-.018l.038-.012.036-.016.028-.012.047-.054.048-.015.054-.006.036-.01.06-.038.06-.028.055-.02.038-.006h.177l.023.013s.024 0 .042.008l.038.018.033.01.024.018.028.002s.025-.007.038-.007c.013 0 .039-.008.039-.008l.03-.005s.013-.008.047-.008h.03l.052-.015.026-.008.046.003.043-.003c.021-.005.078-.026.09-.026h.041c.024 0 .075-.012.088-.015l.074-.025.02.002.026-.043.044-.026.033-.048.02-.039v-.023l.027.041v.023l.061.005.026.02v.095l.026.036.053.005v-.013l.044-.002.036-.013.02.005.04-.013.017-.038v-.033l.046-.03v-.024l.041-.015v-.026l.036-.043.026-.02s.008-.008.02-.006l.013.005.026.023.03.02h.021l.036.006h.031l.028-.013.057-.028s.013-.015.023-.015.054.028.054.028h.033l.036.015v.038h.026l.028-.012.028-.005s-.028.017 0 .02c.028.005.062.02.062.02l.023.026.02.013h.05l.02-.013.049.033s.033-.013.036 0c.005.01.033.003.033.003l.028-.003s.013-.013.026-.007l.013.002.048.041.02-.028.03-.008.02-.007v-.026s-.023-.005 0-.013c.025-.007.056-.036.056-.036v-.023s.049-.002.06-.007c.012-.003.045 0 .045 0l.036.018.044.02s-.018.008 0 .02l.015.013.024.023v.028l.02.013v.023l-.033.018-.023.018-.016.02s-.005.003-.005.02c0 .016-.008-.012 0 .016.01.028-.02.013.01.028l.029.018v.018l.015.041.023.023.039-.015V5.56l.025-.02v-.024l.028-.005.029-.005.033-.015v-.015l.041-.02.039-.034.02-.02v-.019l.034-.005v-.015l.048.015c.02.005.05.005.05.005l.022-.005v-.084l.039-.033v-.028l-.02-.013-.021-.008z" transform="translate(-130.000000, -10945.000000) translate(0.000000, 10010.000000) translate(130.000000, 935.000000)"/>
                    </g>
                </g>
            </g>
        </g>
    </g>
</svg>
